<svg xmlns="http://www.w3.org/2000/svg" viewBox="0 0 160 120.81">
  <defs>
    <style>
      .cls-1 {
        fill: #ed3034;
      }
    </style>
  </defs>
  <g id="Layer_2" data-name="Layer 2">
    <g id="Layer_1-2" data-name="Layer 1">
      <g id="Layer_2-2" data-name="Layer 2">
        <g id="Layer_1-2-2" data-name="Layer 1-2">
          <g>
            <g>
              <g>
                <path class="cls-1" d="M34.08,45c0,9.33-7.11,16.1-16.91,16.1S.39,54.55,0,44.87V43.56H8.13l.11,1.14c.84,8.62,7.52,9,8.86,9,4.25,0,8.86-3.2,8.86-8.38,0-5.82-4.73-7.33-10.18-9.09L14.83,36C10.71,34.74,1.07,31.84,1.07,21.38A14.09,14.09,0,0,1,5.1,11,17.21,17.21,0,0,1,17.37,6.17C24,6.17,32.08,9.89,33,20.39l.13,1.36h-8l-.19-1c-.94-5-3.32-7.25-7.71-7.25-4.61,0-8,3.12-8,7.43,0,4.86,3.36,6.22,11.06,8.83l1.06.37C26.09,32,34.08,35,34.08,45Z"/>
                <polygon class="cls-1" points="36.79 14.58 49.24 14.58 49.24 60.17 57.44 60.17 57.44 14.58 69.94 14.58 69.94 7.06 36.79 7.06 36.79 14.58"/>
                <path class="cls-1" d="M147.31,41a17,17,0,0,0,6.83-5.83,17.45,17.45,0,0,0,3.25-10.66c0-6.09-3-12-7.49-14.68-3.52-2.22-10.67-2.74-16-2.78h-9.4V60.17h8.2V14.58h2.72c4.66,0,7.42.25,9.55,1.64a10.67,10.67,0,0,1,4.42,8.72,11.13,11.13,0,0,1-3.46,8.4c-1.71,1.71-3.55,1.9-7.32,1.9h-4l16.17,24.94H160Z"/>
              </g>
              <g>
                <polygon class="cls-1" points="108.2 32.49 105.29 35.32 124.17 70.89 108.2 32.49"/>
                <polygon class="cls-1" points="122.64 17.04 79.88 46.39 94.68 15.36 102.2 29.5 105.85 26.82 94.68 0 73.34 51.38 65.22 70.89 122.64 17.04"/>
              </g>
            </g>
            <g>
              <path class="cls-1" d="M19.52,83.59c2.16,0,3.08.28,3.9.94A4.33,4.33,0,0,1,25,87.94a4.61,4.61,0,0,1-1.44,3.42,5.47,5.47,0,0,1-3.8,1h-2v5.08H15.56V83.59Zm-1.75,6.85h1.92A3.92,3.92,0,0,0,21.84,90a2.47,2.47,0,0,0,.55-3.45,2.39,2.39,0,0,0-.55-.55,4,4,0,0,0-2.22-.45H17.77Z"/>
              <path class="cls-1" d="M29.25,83.59h3.92c2.18,0,3.3.3,4,.81A4.47,4.47,0,0,1,39,88.15a4.68,4.68,0,0,1-.79,2.64,3.77,3.77,0,0,1-2.69,1.52l3.27,5.16H36.49l-3.8-6.26h.48A4.46,4.46,0,0,0,36,90.6a2.93,2.93,0,0,0,1-2.27A2.83,2.83,0,0,0,35.72,86a4.39,4.39,0,0,0-2.36-.45H31.47V97.47H29.25Z"/>
              <path class="cls-1" d="M42.94,90.6a7.27,7.27,0,1,1,7.41,7.13h-.16a7.11,7.11,0,0,1-7.25-7Zm2.2-.07a5.18,5.18,0,1,0,0-.15Z"/>
              <path class="cls-1" d="M66.22,83.59c2.16,0,3.08.28,3.9.94a4.33,4.33,0,0,1,1.54,3.41,4.61,4.61,0,0,1-1.44,3.42,5.46,5.46,0,0,1-3.79,1h-2v5.08H62.26V83.59Zm-1.74,6.85h1.91A3.94,3.94,0,0,0,68.55,90a2.49,2.49,0,0,0,.53-3.47,2.66,2.66,0,0,0-.53-.53,4,4,0,0,0-2.22-.45H64.48Z"/>
              <path class="cls-1" d="M76,83.59h7.76v2H78.24v3.94h5.48v1.93H78.24v4.11h5.55v2H76Z"/>
              <path class="cls-1" d="M88.84,83.59h3.92c2.18,0,3.3.3,4,.81a4.44,4.44,0,0,1,1.84,3.75,4.68,4.68,0,0,1-.79,2.64,3.73,3.73,0,0,1-2.68,1.52l3.27,5.16H96.08l-3.81-6.26h.49a4.45,4.45,0,0,0,2.78-.61,2.92,2.92,0,0,0,.95-2.27A2.84,2.84,0,0,0,95.31,86,4.39,4.39,0,0,0,93,85.54H91.1V97.47H88.84Z"/>
              <path class="cls-1" d="M105.16,85.54H102v-2h8.59v2H107.4V97.47h-2.21Z"/>
              <path class="cls-1" d="M114.85,83.59h2.22V97.47h-2.22Z"/>
              <path class="cls-1" d="M122.56,83.59h7.77v2h-5.55v3.94h5.47v1.93h-5.47v4.11h5.55v2h-7.77Z"/>
              <path class="cls-1" d="M137,93.36a2.38,2.38,0,0,0,2.24,2.5h.1a2.27,2.27,0,0,0,2.31-2.22c0-1.53-1.31-1.89-3.1-2.55-1.08-.35-3.5-1.16-3.5-3.77a4.08,4.08,0,0,1,4.37-4A3.92,3.92,0,0,1,143.59,87a.76.76,0,0,1,0,.15h-2.18a2,2,0,0,0-2-2h-.08a2,2,0,0,0-2.1,1.9v.1c0,1.35,1,1.69,3.27,2.52,1.72.73,3.33,1.61,3.33,3.86a4.11,4.11,0,0,1-4,4.22,5.19,5.19,0,0,1-5.05-3.82,5.42,5.42,0,0,1,0-.57Z"/>
              <path class="cls-1" d="M55.67,118.93v1.25H42.1v-1.25h6v-1.44H44v-1.14h4.19v-1.23H44.57a12.18,12.18,0,0,1-1.51,1.62,9,9,0,0,0-1.24-.89,9.3,9.3,0,0,0,2.74-3.39h-.89v-5.63H54.09v5.63h-9.3l1.22.36c-.17.36-.39.72-.59,1.08h2.73v-1.13h1.5v1.13h5v1.22h-5v1.23H54v1.14H49.65v1.44Zm-10.58-9.85h7.5V108h-7.5Zm0,2.24h7.5v-1.16h-7.5Z"/>
              <path class="cls-1" d="M76,118.93v1.25H62.42v-1.25h6v-1.44H64.28v-1.14h4.19v-1.23H64.89a12.18,12.18,0,0,1-1.51,1.62,9,9,0,0,0-1.24-.89,9.3,9.3,0,0,0,2.74-3.39H64v-5.63H74.41v5.63h-9.3l1.22.36c-.17.36-.39.72-.59,1.08h2.73v-1.13H70v1.13h5v1.22H70v1.23h4.36v1.14H70v1.44Zm-10.58-9.85h7.5V108h-7.5Zm0,2.24h7.5v-1.16h-7.5Z"/>
              <path class="cls-1" d="M85.65,115.43l1.62-.69L87.6,116c-1.64.8-3.42,1.61-4.81,2.22l-.57-1.45c.57-.2,1.29-.48,2.07-.8v-4.7H82.36v-1.38h1.93v-3.47h1.36v3.47h1.73v1.38H85.65ZM94.34,119c.86,0,1-.4,1.14-2.11a3.79,3.79,0,0,0,1.29.55c-.21,2.16-.65,2.86-2.35,2.86H90.84c-1.92,0-2.47-.48-2.47-2.36v-4.52l-1.08.47-.55-1.3,1.63-.69v-4.14h1.38v3.57l1.75-.74v-4.3h1.36V110l1.7-.72.28-.22.25-.2,1,.39-.06.25a53.43,53.43,0,0,1-.13,5.66c-.13.66-.34,1-.83,1.13a5,5,0,0,1-1.5.17,4.39,4.39,0,0,0-.33-1.23h.91c.2,0,.34-.06.41-.39s.09-1.75.09-4.14l-1.81.78v5.61H91.5v-5l-1.75.75V118c0,.87.17,1,1.17,1Z"/>
              <path class="cls-1" d="M117,119v1.19H105.53V119h4.91v-1.28H107v-1.15h3.47v-1.14h-3a8.86,8.86,0,0,1-1.55,2,7.55,7.55,0,0,0-.7-1.28,8.34,8.34,0,0,1-1.63,4.66,5.22,5.22,0,0,0-1.11-.93c1.25-1.5,1.39-3.61,1.39-5.19v-3h2a5.43,5.43,0,0,0-.64-.63c1.19-.2,2.55-.5,3.83-.81-1.12-.31-2.25-.59-3.28-.81l.8-.61H104V107.6h5.56a7,7,0,0,0-.72-1l1-.48a8.51,8.51,0,0,1,1.1,1.5h5.3v1.14H114l.68.44c-.64.31-1.39.62-2.2.92,1,.3,2,.61,2.78.87l-.72.63h2.27v1.19h-11.5v1.86a12,12,0,0,1-.06,1.44,8.12,8.12,0,0,0,2-3.1l1.25.36c-.11.3-.23.58-.37.88h2.33v-1.16h1.44v1.16h4v1.15h-4v1.14h3.64v1.15H111.9V119Zm-3.18-7.35c-.82-.3-1.89-.63-3-1-1.28.39-2.6.7-3.82,1Zm-6.5-2.86c1.14.26,2.38.58,3.57.9a14.76,14.76,0,0,0,2.4-.9Z"/>
            </g>
          </g>
        </g>
      </g>
    </g>
  </g>
</svg>
