<svg xmlns="http://www.w3.org/2000/svg" viewBox="0 0 100 100">
  <defs>
    <style>
      .cls-1 {
        fill: #ab9163;
      }

      .cls-2 {
        fill: none;
      }
    </style>
  </defs>
  <g id="Layer_2" data-name="Layer 2">
    <g id="Layer_1-2" data-name="Layer 1">
      <g id="Layer_2-2" data-name="Layer 2">
        <g id="svg6331">
          <path class="cls-1" d="M89.15,30.42A10.21,10.21,0,0,0,82,23.23c-6.4-1.75-32-1.75-32-1.75s-25.56,0-31.94,1.67a10.42,10.42,0,0,0-7.19,7.26C9.18,36.82,9.18,50.05,9.18,50.05s0,13.31,1.67,19.63A10.21,10.21,0,0,0,18,76.87c6.5,1.76,32,1.76,32,1.76s25.56,0,31.94-1.68a10.23,10.23,0,0,0,7.19-7.19c1.71-6.4,1.71-19.63,1.71-19.63S90.88,36.82,89.15,30.42ZM41.87,62.3V37.82L63.12,50.07Z"/>
          <rect class="cls-2" width="100" height="100"/>
        </g>
      </g>
    </g>
  </g>
</svg>
