<?xml version="1.0" encoding="UTF-8"?>
<svg id="Layer_2" data-name="Layer 2" xmlns="http://www.w3.org/2000/svg" xmlns:xlink="http://www.w3.org/1999/xlink" viewBox="0 0 133.69 119.79">
  <defs>
    <style>
      .cls-1 {
        fill: none;
      }

      .cls-2 {
        clip-path: url(#clippath);
      }

      .cls-3 {
        fill: #fff;
      }

      .cls-4 {
        fill: #b21b39;
      }

      .cls-5 {
        fill: #ac2e44;
      }
    </style>
    <clipPath id="clippath">
      <circle class="cls-1" cx="67.06" cy="59.89" r="59.89"/>
    </clipPath>
  </defs>
  <g id="Layer_1-2" data-name="Layer 1-2">
    <g>
      <ellipse class="cls-5" cx="67.16" cy="60.08" rx="60" ry="50"/>
      <path class="cls-3" d="m71.85,94.7h-9.37v-19.55c-7.56,2.12-13.13,9.22-13.13,17.63h-9.37c0-13.74,9.74-25.18,22.5-27.47v-10.44c-12.76-2.29-22.5-13.73-22.5-27.47h9.37c0,8.41,5.57,15.51,13.13,17.63v-19.57h9.37v19.55c7.56-2.12,13.13-9.22,13.13-17.63h9.37c0,13.74-9.74,25.18-22.5,27.47v10.44c12.76,2.29,22.5,13.73,22.5,27.47h-9.37c0-8.41-5.57-15.51-13.13-17.63v19.57Z"/>
    </g>
  </g>
  <g class="cls-2">
    <g>
      <circle class="cls-4" cx="67.06" cy="59.89" r="59.89"/>
      <path class="cls-3" d="m21.56,80.86l6.43.88h10.28c1.79,0,3.56-.47,5.11-1.36l3.05-1.74c1.09-.62,2.29-1.02,3.54-1.17l7.89-.95,75.83-18.03-78.9,7.88-5.07,4.18c-1.38,1.14-3.12,1.76-4.91,1.76h-3.55l-5.68,1.89c-1.27.42-2.58.68-3.91.76l-12.28.76.05.1c.54,1.01.78,2.15.7,3.29-.07.87.55,1.63,1.41,1.75Z"/>
      <polygon class="cls-3" points="105.84 60.3 52.39 63.84 45.81 66.49 105.84 60.3"/>
      <path class="cls-3" d="m62.16,52.25l2.01-8.46-3.19-1.38c-.88-.38-1.91-.14-2.53.59l-8.93,10.6h10.92c.82,0,1.53-.56,1.71-1.35Z"/>
      <polygon class="cls-3" points="110.01 53.1 80.31 47.66 80.31 55.88 110.01 57.27 110.01 53.1"/>
      <polygon class="cls-3" points="113.05 57.27 133.14 57.27 113.05 53.98 113.05 57.27"/>
      <path class="cls-3" d="m67.97,61.31h2.65c.25,0,.45-.21.44-.46l-.84-16.89c0-.2-.15-.37-.34-.41l-2.52-.56c-.28-.06-.55.16-.54.45l.72,17.46c0,.24.2.42.44.42Z"/>
      <path class="cls-3" d="m30.95,73.5c.72-.03,1.43-.17,2.12-.39l7.31-2.44s-4.18-10.87,15.79-29.59c1.09-1.02,2.62-1.42,4.07-1.07l65.25,15.34-70.45-21.45c-14.03-1.52-23.97,8.97-23.97,8.97,4.55-2.38,15.9-2.76,18.76-2.81.25,0,.38.29.2.47-2.91,3.01-15.13,10.97-15.62,11.01l-10.86.79c-1.42.1-2.75.76-3.69,1.83-3.55,4.04-11.37,14.39-4,20.06l15.09-.71Z"/>
      <polygon class="cls-3" points="7.56 96.65 113.39 64.95 0 94.69 7.56 96.65"/>
    </g>
  </g>
</svg>