<svg xmlns="http://www.w3.org/2000/svg" viewBox="0 0 100 100">
  <defs>
    <style>
      .cls-1 {
        fill: #ab9163;
      }

      .cls-2 {
        fill: none;
      }
    </style>
  </defs>
  <g id="Layer_2" data-name="Layer 2">
    <g id="Layer_1-2" data-name="Layer 1">
      <g id="Layer_2-2" data-name="Layer 2">
        <g id="svg6331">
          <path class="cls-1" d="M89.49,33.64A28.83,28.83,0,0,0,87.65,24,20.37,20.37,0,0,0,76,12.39a28.82,28.82,0,0,0-9.63-1.84c-4.25-.21-5.6-.25-16.38-.25s-12.13,0-16.37.23A29,29,0,0,0,24,12.38,19.23,19.23,0,0,0,17,17a19.53,19.53,0,0,0-4.57,7,29.19,29.19,0,0,0-1.85,9.64c-.2,4.25-.25,5.6-.25,16.38s0,12.13.24,16.36A29.24,29.24,0,0,0,12.38,76,19.81,19.81,0,0,0,17,83a19.45,19.45,0,0,0,7,4.57,29.08,29.08,0,0,0,9.63,1.85c4.24.19,5.59.23,16.37.23s12.13,0,16.37-.23A29,29,0,0,0,76,87.62,20.33,20.33,0,0,0,87.62,76a29.44,29.44,0,0,0,1.84-9.64c.19-4.23.24-5.58.24-16.36S89.68,37.88,89.49,33.64ZM82.34,66.06A21.79,21.79,0,0,1,81,73.43,13.17,13.17,0,0,1,73.44,81a22.06,22.06,0,0,1-7.37,1.36c-4.19.19-5.44.24-16,.24s-11.87,0-16-.24A22.06,22.06,0,0,1,26.62,81a12.13,12.13,0,0,1-4.56-3,12.41,12.41,0,0,1-3-4.56,22.06,22.06,0,0,1-1.36-7.37c-.19-4.19-.24-5.45-.24-16s.05-11.87.24-16a22.06,22.06,0,0,1,1.36-7.37,12,12,0,0,1,3-4.56,12.21,12.21,0,0,1,4.56-3A21.43,21.43,0,0,1,34,17.74c4.19-.18,5.44-.23,16-.23s11.86,0,16,.23a21.52,21.52,0,0,1,7.36,1.37,12,12,0,0,1,4.56,3,12.41,12.41,0,0,1,3,4.56A21.84,21.84,0,0,1,82.34,34c.19,4.19.24,5.44.24,16S82.53,61.87,82.34,66.06ZM50,29.61A20.4,20.4,0,1,0,70.41,50,20.4,20.4,0,0,0,50,29.61Zm0,33.63A13.23,13.23,0,1,1,63.25,50,13.23,13.23,0,0,1,50,63.24ZM76,28.8a4.77,4.77,0,1,1,0-.06Z"/>
          <rect class="cls-2" width="100" height="100"/>
        </g>
      </g>
    </g>
  </g>
</svg>
