<?xml version="1.0" encoding="utf-8"?>
<!-- Generator: Adobe Illustrator 27.2.0, SVG Export Plug-In . SVG Version: 6.00 Build 0)  -->
<svg version="1.1" id="Layer_1" xmlns="http://www.w3.org/2000/svg" xmlns:xlink="http://www.w3.org/1999/xlink" x="0px" y="0px"
	 viewBox="0 0 100 100" style="enable-background:new 0 0 100 100;" xml:space="preserve">
<style type="text/css">
	.st0{fill:#AB9163;}
	.st1{fill:none;}
</style>
<g id="Layer_2_00000012473435751167278970000009496714466763242174_">
	<g id="Layer_1-2">
		<g id="Layer_2-2">
			<g id="svg6331">
				<g id="layer1">
					<path id="path1036" class="st0" d="M48.3,14.7L25,28.1H4.8c-1.9,0-3.5,1.6-3.5,3.5v34.8c0,1.9,1.6,3.5,3.5,3.5H25l23.3,13.4
						c1.7,0.9,3.8,0.4,4.7-1.3c0.3-0.5,0.5-1.1,0.5-1.7V17.7c0-1.9-1.6-3.5-3.5-3.5C49.4,14.3,48.8,14.4,48.3,14.7L48.3,14.7z
						 M46.5,23.7v50.5L27.7,63.4c-0.5-0.3-1.1-0.5-1.7-0.5H8.3V35.1h17.6c0.6,0,1.2-0.2,1.7-0.5L46.5,23.7z"/>
				</g>
				<rect class="st1" width="100" height="100"/>
			</g>
		</g>
	</g>
</g>
</svg>
