<svg xmlns="http://www.w3.org/2000/svg" viewBox="0 0 149.61 64.24">
  <defs>
    <style>
      .cls-1 {
        fill: #c3b190;
      }

      .cls-2 {
        fill: #a9bdc9;
      }
    </style>
  </defs>
  <g id="Layer_2" data-name="Layer 2">
    <g id="Layer_1-2" data-name="Layer 1">
      <g>
        <polygon class="cls-1" points="18.77 30.18 18.24 31.5 26.87 31.5 26.34 30.18 18.77 30.18"/>
        <polygon class="cls-1" points="19.76 13.18 7.26 44.85 8.69 44.85 20.45 14.99 19.76 13.18"/>
        <polygon class="cls-1" points="25.25 0.03 42.98 44.85 44.38 44.85 26.65 0.03 25.25 0.03"/>
        <polygon class="cls-2" points="17.73 0.03 0 44.85 1.43 44.85 18.57 1.46 35.72 44.85 37.12 44.85 19.42 0.03 17.73 0.03"/>
        <polygon class="cls-2" points="17.21 34.71 16.7 36.03 28.45 36.03 27.88 34.71 17.21 34.71"/>
        <g>
          <path class="cls-2" d="M118.87,3.31a15.21,15.21,0,0,1,5.4,5.32,13.57,13.57,0,0,1,2,7.13,15,15,0,0,1-2,7.65,14.65,14.65,0,0,1-5.39,5.41,14.46,14.46,0,0,1-7.31,1.94H98.72v1.29l11.9,0h.44v0c.31,0,.78,0,1.35,0h0l.41,0,.64-.06a17.35,17.35,0,0,0,6.41-2l.09-.06a13.89,13.89,0,0,0,1.62-1.09l.1-.07a15.31,15.31,0,0,0,3.86-4.51,16.86,16.86,0,0,0,2.06-8.44A15,15,0,0,0,125.41,8a16.54,16.54,0,0,0-5.91-5.81A15.58,15.58,0,0,0,111.56,0H86.29V44.82H87.6V1.32h24a14.32,14.32,0,0,1,7.31,2"/>
          <polygon class="cls-2" points="118.08 33.95 123.92 44.82 125.31 44.82 119.52 33.95 118.08 33.95"/>
          <polygon class="cls-1" points="111.52 33.95 117.05 44.82 118.45 44.82 112.94 33.95 111.52 33.95"/>
          <rect class="cls-2" x="46.36" width="32.66" height="1.32"/>
          <rect class="cls-1" x="46.36" y="6.66" width="32.66" height="1.32"/>
          <rect class="cls-2" x="58.49" y="11.53" width="1.32" height="33.29"/>
          <rect class="cls-1" x="65.57" y="11.53" width="1.32" height="33.29"/>
          <path class="cls-1" d="M94.23,44.79H93V6.66H111.7a9.35,9.35,0,0,1,.28,18.7v0H98.71V24.12h12.9a8.11,8.11,0,0,0,0-16.21H94.23Z"/>
          <path class="cls-2" d="M31.83,63.06H30.9l-.17,1.18h-.51l.72-4.62h.8l.8,4.62H32Zm-.06-.43L31.34,60,31,62.63Z"/>
          <polygon class="cls-2" points="37.28 60.06 37.28 61.69 38.27 61.69 38.27 62.13 37.28 62.13 37.28 64.24 36.77 64.24 36.77 59.62 38.57 59.62 38.57 60.06 37.28 60.06"/>
          <polygon class="cls-2" points="44.34 60.06 43.6 60.06 43.6 64.24 43.09 64.24 43.09 60.06 42.35 60.06 42.35 59.62 44.34 59.62 44.34 60.06"/>
          <polygon class="cls-2" points="50.27 63.8 50.27 64.24 48.49 64.24 48.49 59.62 50.22 59.62 50.22 60.06 49.01 60.06 49.01 61.62 50 61.62 50 62.06 49.01 62.06 49.01 63.8 50.27 63.8"/>
          <path class="cls-2" d="M55.48,62.31H55v1.93h-.5V59.62h1.34a.52.52,0,0,1,.59.59v1.51c0,.35-.15.54-.46.58l.7,1.94h-.55ZM55,61.87h.69c.2,0,.23,0,.23-.23V60.29c0-.19,0-.23-.23-.23H55Z"/>
          <polygon class="cls-2" points="67.24 60.06 66.5 60.06 66.5 64.24 65.99 64.24 65.99 60.06 65.25 60.06 65.25 59.62 67.24 59.62 67.24 60.06"/>
          <polygon class="cls-2" points="73.41 59.62 73.41 64.24 72.9 64.24 72.9 62.15 71.91 62.15 71.91 64.24 71.39 64.24 71.39 59.62 71.91 59.62 71.91 61.72 72.9 61.72 72.9 59.62 73.41 59.62"/>
          <polygon class="cls-2" points="79.72 63.8 79.72 64.24 77.94 64.24 77.94 59.62 79.67 59.62 79.67 60.06 78.45 60.06 78.45 61.62 79.44 61.62 79.44 62.06 78.45 62.06 78.45 63.8 79.72 63.8"/>
          <path class="cls-2" d="M89.6,62.31h-.44v1.93h-.5V59.62H90a.52.52,0,0,1,.58.59v1.51c0,.35-.15.54-.46.58l.7,1.94h-.55Zm-.44-.44h.69c.19,0,.23,0,.23-.23V60.29c0-.19,0-.23-.23-.23h-.69Z"/>
          <path class="cls-2" d="M96.39,63.06h-.94l-.17,1.18h-.51l.72-4.62h.81l.79,4.62h-.51Zm-.07-.43L95.89,60l-.38,2.65Z"/>
          <rect class="cls-2" x="101.39" y="59.62" width="0.5" height="4.61"/>
          <polygon class="cls-2" points="108.48 59.62 108.48 64.24 107.92 64.24 106.96 60.66 106.96 64.24 106.5 64.24 106.5 59.62 107.09 59.62 108.01 63.07 108.01 59.62 108.48 59.62"/>
          <path class="cls-1" d="M149.52,17.21h-4.86v1.85h4.28v6.63c-.2.47-.4.75-.59.83a4.38,4.38,0,0,1-1.09.09h-.67l-.17-.59.54.09.55.08a1,1,0,0,0,.34-.17.84.84,0,0,0,.16-.33v-6.3h-3.35v7.22h-.84V19.39h-3.36v7.22h-.84V19.06h4.2V17.21h-4.7v-.42h10.4Zm-6.29,7-.59.76a8.42,8.42,0,0,0-.88-1.05l-.88-.88.34-.34a5.88,5.88,0,0,1,1,.63c.34.28.66.58,1,.88m.17-2.51-.3.29c-.14.17-.23.27-.29.29a.32.32,0,0,1-.13-.08.2.2,0,0,1,0-.08,5,5,0,0,0-.75-.84c-.28-.28-.56-.53-.84-.76l.33-.25a4.76,4.76,0,0,1,1,.63c.34.25.67.52,1,.8m4,2.43-.59.76c-.31-.34-.63-.66-1-1s-.63-.6-1-.88l.33-.42a10,10,0,0,1,1.14.67,10.17,10.17,0,0,1,1.05.84m.25-2.52-.59.76c-.34-.34-.67-.66-1-1s-.67-.54-1-.79l.33-.42c.37.19.74.4,1.13.63a11.79,11.79,0,0,1,1.14.79"/>
          <path class="cls-2" d="M143,37.46q-.3.42-.63.84a5.42,5.42,0,0,0-.63.84v5.71h-.84v-4.7l-1.34,1.09-.42-.34A16.47,16.47,0,0,0,140.75,39,24,24,0,0,0,142.14,37h.08a.94.94,0,0,1,.42.13.85.85,0,0,1,.34.37M142.81,35l-.08.17q-.72.54-1.47,1c-.48.36-1,.71-1.47,1l-.34-.25c.37-.33.74-.68,1.14-1s.77-.74,1.13-1.13a.43.43,0,0,1,.21-.12.44.44,0,0,1,.21-.13.87.87,0,0,1,.33.17,1.1,1.1,0,0,1,.34.25m6.8,9.23-.17.5a16.22,16.22,0,0,1-1.72-.5,14.82,14.82,0,0,1-1.55-.76,19.2,19.2,0,0,1-1.81.76,18.43,18.43,0,0,1-1.8.5l-.25-.42a14.27,14.27,0,0,0,1.67-.58,14.48,14.48,0,0,0,1.6-.67c-.22-.26-.43-.52-.63-.8a3.71,3.71,0,0,1-.46-.88c-.25.19-.52.42-.8.67a3.48,3.48,0,0,1-.88.59l-.25-.34a6.86,6.86,0,0,0,1.09-1.17,16.44,16.44,0,0,0,.84-1.43c-.31,0-.6.07-.88.12s-.55.13-.8.21a.78.78,0,0,1-.34-.25.49.49,0,0,1-.08-.25.42.42,0,0,1,.08-.29.25.25,0,0,1,.26,0h1.51l1-1.1a6.59,6.59,0,0,0-1-1c-.34-.31-.67-.61-1-.89l.34-.42.83.51,1.1-1.6a.92.92,0,0,1,.08-.25c0-.08.11-.11.25-.08a1,1,0,0,1,.34.17,1.71,1.71,0,0,1,.33.33V35l-1.59,1.67.92.84c.31-.36.6-.72.88-1.09s.58-.73.88-1.09l.09-.08a1,1,0,0,1,.42.21.81.81,0,0,1,.33.37,12.78,12.78,0,0,1-1.38,1.56c-.79.84-1.33,1.41-1.64,1.72l2.69-.34a4,4,0,0,0-.34-.54c-.11-.17-.22-.33-.33-.47l.5-.33a11.91,11.91,0,0,1,.88,1.17c.28.4.55.79.8,1.18l-.84.59a2,2,0,0,0-.25-.59l-.26-.59-2.68.42a.82.82,0,0,0-.29.42,2.06,2.06,0,0,0-.21.42h3.52a7.14,7.14,0,0,1-.84,1.43c-.33.47-.67.92-1,1.34q.63.33,1.35.63c.47.17,1,.32,1.51.46m-2.27-3.44h-2.18a4.3,4.3,0,0,0,.42.92,4.22,4.22,0,0,0,.59.84c.22-.28.43-.57.63-.88l.54-.88"/>
        </g>
      </g>
    </g>
  </g>
</svg>
