<svg xmlns="http://www.w3.org/2000/svg" viewBox="0 0 100 100">
  <defs>
    <style>
      .cls-1 {
        fill: #ab9163;
      }

      .cls-2 {
        fill: none;
      }
    </style>
  </defs>
  <g id="Layer_2" data-name="Layer 2">
    <g id="Layer_1-2" data-name="Layer 1">
      <g id="Layer_2-2" data-name="Layer 2">
        <g id="svg6331">
          <g id="layer1">
            <path id="path1036" class="cls-1" d="M48.26,14.72,25,28.15H4.83a3.48,3.48,0,0,0-3.48,3.48V66.38a3.5,3.5,0,0,0,3.48,3.48H25L48.26,83.29A3.48,3.48,0,0,0,53,82a3.42,3.42,0,0,0,.46-1.71V17.73a3.47,3.47,0,0,0-5.21-3Zm-1.73,9V74.27L27.66,63.37a3.62,3.62,0,0,0-1.73-.47H8.3V35.1H25.93a3.38,3.38,0,0,0,1.73-.47Z"/>
            <path id="path1038" class="cls-1" d="M70.1,21.91a27.81,27.81,0,0,1,0,54.21c-4.51,1-3,7.81,1.55,6.78a34.76,34.76,0,0,0,0-67.77,3.48,3.48,0,0,0-1.81,6.72Z"/>
            <path id="path1040" class="cls-1" d="M69.18,40a10.43,10.43,0,0,1,0,18c-4.24,2.24-.59,8.58,3.46,6a17.39,17.39,0,0,0,0-30,3.47,3.47,0,0,0-3.84,5.78A2.88,2.88,0,0,0,69.18,40Z"/>
          </g>
          <rect class="cls-2" width="100" height="100"/>
        </g>
      </g>
    </g>
  </g>
</svg>
