<?xml version="1.0" encoding="UTF-8"?>
<svg id="Layer_2" data-name="Layer 2" xmlns="http://www.w3.org/2000/svg" viewBox="0 0 100 100">
  <defs>
    <style>
      .cls-1 {
        fill: none;
      }

      .cls-2 {
        fill: #ab9163;
      }
    </style>
  </defs>
  <g id="Layer_1-2" data-name="Layer 1">
    <g id="Layer_2-2" data-name="Layer 2">
      <g id="svg6331">
        <g id="layer1">
          <path class="cls-2" d="m12.5,90.97c-.89,0-1.78-.34-2.46-1.02-1.36-1.36-1.36-3.56,0-4.91L85.04,10.04c1.36-1.36,3.56-1.36,4.91,0,1.36,1.36,1.36,3.56,0,4.91L14.96,89.96c-.68.68-1.57,1.02-2.46,1.02Z"/>
          <path id="path1036" class="cls-2" d="m48.26,14.72l-23.26,13.43H4.83c-1.92,0-3.48,1.56-3.48,3.48v34.75c0,1.92,1.56,3.47,3.48,3.48h20.17l23.26,13.43c1.67.96,3.79.38,4.75-1.29.3-.52.46-1.11.46-1.71V17.73c0-1.92-1.56-3.47-3.47-3.47-.61,0-1.21.16-1.74.47h0Zm-1.73,8.99v50.55l-18.87-10.9c-.53-.3-1.12-.46-1.73-.47H8.3v-27.8h17.63c.61,0,1.21-.16,1.73-.47l18.87-10.91Z"/>
          <path id="path1038" class="cls-2" d="m70.1,21.91c14.97,3.44,24.32,18.36,20.88,33.33-2.38,10.39-10.5,18.5-20.88,20.88-4.51,1-3,7.81,1.55,6.78,18.71-4.28,30.42-22.92,26.13-41.64-2.97-13.01-13.13-23.16-26.13-26.13-1.86-.5-3.77.6-4.26,2.46-.5,1.86.6,3.77,2.46,4.26.09.02.17.04.26.06Z"/>
          <path id="path1040" class="cls-2" d="m69.18,40c4.97,2.91,6.64,9.3,3.73,14.27-.9,1.54-2.19,2.83-3.73,3.73-4.24,2.24-.59,8.58,3.46,6,8.28-4.86,11.06-15.51,6.2-23.8-1.5-2.56-3.64-4.7-6.2-6.2-1.6-1.06-3.75-.63-4.81.97-1.06,1.6-.63,3.75.97,4.81.12.08.25.15.38.22Z"/>
        </g>
        <rect class="cls-1" width="100" height="100"/>
      </g>
    </g>
  </g>
</svg>